<svg xmlns="http://www.w3.org/2000/svg" viewBox="0 -0.5 200 200" shape-rendering="crispEdges">
<metadata>Made with Pixels to Svg https://codepen.io/shshaw/pen/XbxvNj</metadata>
<path stroke="#10101e" d="M105 74h2M106 75h2M105 76h1M106 80h1M105 81h1" />
<path stroke="#020205" d="M105 75h1M106 76h3M106 77h1M108 77h1M113 77h1M114 78h3M106 79h1M110 79h2M113 79h1M116 79h1M105 80h1M107 80h1M109 80h1M111 80h3M106 81h2M112 81h1M105 82h2M105 83h1M105 84h1M110 88h1M108 89h3M108 90h3M109 91h2M110 92h1M110 93h1M110 94h1M109 95h1M109 96h1M109 97h1M109 98h1M109 103h1M111 104h1M111 105h1M112 106h2M113 107h5M113 108h2M112 109h2M111 110h3M109 111h7M103 112h16M122 112h1M103 113h2M106 113h6M114 113h9M102 114h2M106 114h5M115 114h8M102 115h3M106 115h4M117 115h5M102 116h3M107 116h3M120 116h1M102 117h4M108 117h2M103 118h6M104 119h4M124 126h1M94 127h1M122 127h2" />
<path stroke="#caa27a" d="M110 75h2M113 75h3M110 76h3M115 76h1M112 77h1M109 88h1" />
<path stroke="#d3d3d3" d="M89 76h16M109 76h1M81 77h25M109 77h1M79 78h13M105 78h1" />
<path stroke="#000031" d="M113 76h1M116 76h1M116 77h1M110 98h2M109 99h3M108 100h3M107 101h3M106 102h2M105 103h2M103 104h2M101 105h3M99 106h3M98 107h3M96 108h3M95 109h2M93 110h2M91 111h3M90 112h2M86 113h4" />
<path stroke="#b57e54" d="M114 76h1M110 77h2M114 77h2M110 78h3M112 79h1M106 83h1" />
<path stroke="#b6a5a5" d="M107 77h1M106 78h1" />
<path stroke="#ce283d" d="M107 78h1M108 79h1M108 80h1M109 81h1" />
<path stroke="#2e2e41" d="M113 78h1M110 80h1M110 81h2M109 82h3M108 83h3M106 84h5M105 85h6M112 85h1M103 86h6M102 87h5M103 88h2" />
<path stroke="#a20b1f" d="M107 79h1M108 81h1M107 82h1M107 83h1" />
<path stroke="#151522" d="M114 79h2M114 80h3M113 81h3M112 82h4M111 83h5M111 84h4M111 85h1M113 85h2M109 86h5M107 87h4M112 87h2M102 88h1M105 88h4M111 88h2M102 89h4" />
<path stroke="#ffffff" d="M108 82h1" />
<path stroke="#890c1c" d="M111 87h1" />
<path stroke="#303593" d="M106 89h2M111 89h1M106 90h2M111 90h1M108 91h1M111 91h2M106 92h1M108 92h2M111 92h2M106 93h2M109 93h1M111 93h2M106 94h1M108 94h1M111 94h1M107 95h2M110 95h2M107 96h2M110 96h2M107 97h1M108 98h1M108 102h3M108 103h1M110 103h1M105 105h5M112 105h3M105 106h5M115 106h1M103 107h7M103 108h6M103 109h5M103 110h4" />
<path stroke="#1e2275" d="M102 90h4M102 91h6M102 92h4M107 92h1M102 93h4M108 93h1M102 94h4M107 94h1M109 94h1M112 94h1M103 95h4M112 95h1M103 96h4M103 97h4M108 97h1M110 97h2M104 98h4M104 99h5M104 101h2M110 101h1M107 103h1M105 104h6M104 105h1M110 105h1M103 106h2M110 106h2M114 106h1M116 106h1M110 107h3M109 108h4M108 109h4M107 110h4M103 111h6M112 113h2M111 114h3M110 115h4M110 116h2" />
<path stroke="#888891" d="M104 100h4M122 115h1M121 116h2M120 117h2M102 118h1M120 118h2M101 119h3M121 119h2M102 120h4M121 120h2M101 121h4M121 121h3M100 122h3M122 122h2M99 123h3M122 123h2M97 124h4M122 124h2M94 125h5M122 125h3M93 126h5M122 126h2M92 127h1M124 127h3" />
<path stroke="#190560" d="M106 101h1M105 102h1M103 103h2M101 104h2M99 105h2M98 106h1M96 107h2M95 108h1M93 109h2M91 110h2M89 111h2M86 112h4" />
<path stroke="#171736" d="M115 108h5M114 109h7M114 110h9M116 111h7M119 112h3M105 113h1M104 114h2M105 115h1M105 116h2M106 117h2" />
<path stroke="#a1a1af" d="M122 117h2M122 118h2M123 119h1M100 120h2M123 120h1M99 121h2M124 121h1M98 122h2M124 122h1M96 123h3M124 123h1M95 124h2M124 124h1M125 126h1M93 127h1" />
</svg>