<svg xmlns="http://www.w3.org/2000/svg" viewBox="0 -0.5 200 200" shape-rendering="crispEdges">
<metadata>Made with Pixels to Svg https://codepen.io/shshaw/pen/XbxvNj</metadata>
<path stroke="#10101e" d="M118 87h2M118 89h1M120 89h1M121 90h1M119 93h1M118 94h1" />
<path stroke="#020205" d="M118 88h2M119 89h1M119 90h1M119 92h1M118 93h1M120 93h1M122 93h1M119 94h2M123 94h1M118 95h2M118 96h1M118 97h2M119 98h1M118 99h2M119 100h2M121 101h1M118 105h1M129 108h2M132 108h1M128 109h1M132 109h1M128 110h2M113 111h1M117 111h2M129 111h1M113 112h12M129 112h2M113 113h9M113 114h8M112 115h9M111 116h12M111 117h3M115 117h11M129 117h1M105 118h2M110 118h4M118 118h12M105 119h2M108 119h6M121 119h9M104 120h2M108 120h5M124 120h5M104 121h3M108 121h4M127 121h1M104 122h3M109 122h3M104 123h4M110 123h2M105 124h6M96 125h1M106 125h4M124 125h1M97 126h2M125 126h1" />
<path stroke="#b6a5a5" d="M120 90h1M119 91h1" />
<path stroke="#ce283d" d="M120 91h1M121 92h1M124 92h1M121 93h1M124 93h1M122 94h1M122 97h1" />
<path stroke="#a20b1f" d="M123 91h1M120 92h1M123 92h1M121 94h1M124 94h1M120 95h1M122 95h3M120 96h1M123 96h1M120 97h2M123 97h2M121 98h3" />
<path stroke="#1c1c2e" d="M123 93h1" />
<path stroke="#ffffff" d="M121 95h1M121 96h2M124 96h1" />
<path stroke="#b57e54" d="M119 96h1M129 109h1M133 109h1M130 110h1M133 110h1M130 111h2M133 111h3M131 112h4" />
<path stroke="#303593" d="M115 98h3M115 99h3M116 100h3M122 101h1M116 102h1M113 103h1M116 103h1M113 104h2M116 104h1M113 105h1M108 110h2M119 110h3M107 111h2M115 111h2M122 111h1M106 112h1M110 113h1M108 114h1" />
<path stroke="#caa27a" d="M118 98h1M120 99h1M121 100h1M130 109h2M134 109h1M131 110h2M134 110h2M132 111h1" />
<path stroke="#890c1c" d="M120 98h1M124 98h1M121 99h4M122 100h3" />
<path stroke="#1e2275" d="M114 99h1M113 100h3M113 101h4M112 102h4M111 103h2M114 103h2M111 104h2M115 104h1M117 104h1M111 105h2M114 105h4M111 106h5M118 106h2M111 107h4M118 107h1M110 110h1M114 110h5M114 111h1M119 111h3M123 111h1M111 112h2M111 113h2M109 114h4M107 115h5M105 116h6M104 117h7M114 117h1M107 118h3M114 118h4M114 119h4M113 120h4M112 121h4" />
<path stroke="#151522" d="M117 101h1M123 101h2M117 102h2M123 102h3M117 103h3M124 103h3M118 104h3M125 104h3M119 105h3M127 105h2M120 106h4M129 106h2M121 107h5M130 107h2M123 108h4M131 108h1M124 109h4M125 110h3M127 111h2M128 112h1" />
<path stroke="#2e2e41" d="M118 101h3M125 101h1M119 102h4M126 102h1M120 103h4M127 103h1M121 104h4M128 104h1M122 105h5M129 105h2M124 106h5M131 106h1M126 107h4M132 107h1M127 108h2M133 108h1" />
<path stroke="#000031" d="M116 106h2M115 107h3M114 108h3M113 109h3M112 110h2M111 111h2M109 112h2M107 113h3M105 114h3M104 115h3M102 116h3M101 117h2M99 118h2M97 119h3M96 120h2M92 121h4" />
<path stroke="#888891" d="M111 108h1M113 108h1M111 109h1M116 109h2M103 121h1M124 121h3M103 122h1M126 122h2M102 123h2M125 123h2M99 124h6M123 124h3M97 125h9M123 125h1M125 125h1M95 126h2M123 126h2M96 127h2M123 127h4" />
<path stroke="#a1a1af" d="M112 108h1M117 108h1M101 122h2M124 122h2M99 123h3M123 123h2M96 124h3M122 124h1M95 125h1M122 125h1" />
<path stroke="#190560" d="M112 109h1M111 110h1M109 111h2M107 112h2M105 113h2M104 114h1M102 115h2M101 116h1M99 117h2M97 118h2M95 119h2M92 120h4" />
<path stroke="#d3d3d3" d="M135 112h2M135 113h5M136 114h5M138 115h5M140 116h5M142 117h5M144 118h5M147 119h4M149 120h5M151 121h5M153 122h4M156 123h3M158 124h4M160 125h5" />
<path stroke="#171736" d="M122 113h5M121 114h7M121 115h9M123 116h7M126 117h3M107 119h1M106 120h2M107 121h1M107 122h2M108 123h2" />
</svg>