<svg xmlns="http://www.w3.org/2000/svg" viewBox="0 -0.5 200 200" shape-rendering="crispEdges">
<metadata>Made with Pixels to Svg https://codepen.io/shshaw/pen/XbxvNj</metadata>
<path stroke="#10101e" d="M108 77h2M107 78h1M108 79h1M109 83h1M108 84h1" />
<path stroke="#020205" d="M108 78h2M107 79h1M109 79h1M108 80h2M107 81h1M116 81h1M109 82h1M113 82h2M116 82h4M108 83h1M110 83h1M112 83h1M114 83h3M119 83h1M109 84h2M115 84h1M108 85h2M108 86h1M108 87h1M113 91h1M111 92h3M111 93h3M112 94h2M113 95h1M113 96h1M113 97h1M112 98h1M112 99h1M112 100h1M112 101h1M113 107h1M113 108h3M113 109h9M113 110h6M113 111h5M112 112h6M111 113h9M111 114h3M115 114h8M126 114h1M105 115h2M110 115h4M118 115h9M105 116h2M108 116h6M119 116h8M104 117h2M108 117h5M121 117h5M104 118h3M108 118h5M124 118h1M104 119h3M109 119h3M104 120h4M110 120h2M105 121h6M106 122h4M124 126h1M94 127h1M122 127h2" />
<path stroke="#caa27a" d="M113 78h2M113 79h3M117 79h2M115 80h1M118 80h1M112 91h1" />
<path stroke="#d3d3d3" d="M92 79h15M110 79h3M84 80h24M111 80h2M82 81h13M108 81h1" />
<path stroke="#000031" d="M116 79h1M119 79h1M119 80h1M113 101h2M112 102h3M111 103h3M110 104h3M109 105h2M108 106h2M106 107h2M104 108h3M102 109h3M101 110h3M99 111h3M98 112h2M96 113h2M94 114h3M93 115h2M89 116h4" />
<path stroke="#b6a5a5" d="M110 80h1M109 81h1" />
<path stroke="#b57e54" d="M113 80h2M116 80h2M113 81h3M117 81h2M115 82h1M109 86h1" />
<path stroke="#ce283d" d="M110 81h1M111 82h1M111 83h1M112 84h1" />
<path stroke="#a20b1f" d="M110 82h1M111 84h1M110 85h1M110 86h1" />
<path stroke="#2e2e41" d="M113 83h1M113 84h2M112 85h3M111 86h3M109 87h5M116 87h1M108 88h6M115 88h1M106 89h6M115 89h1M105 90h5M106 91h2" />
<path stroke="#151522" d="M117 83h2M116 84h4M115 85h4M114 86h5M114 87h2M117 87h2M114 88h1M116 88h2M112 89h3M116 89h2M110 90h4M115 90h2M105 91h1M108 91h4M114 91h3M105 92h4M115 92h1" />
<path stroke="#ffffff" d="M111 85h1" />
<path stroke="#890c1c" d="M114 90h1" />
<path stroke="#303593" d="M109 92h2M114 92h1M109 93h2M114 93h1M111 94h1M114 94h2M109 95h1M111 95h2M114 95h2M109 96h2M112 96h1M114 96h2M109 97h1M111 97h1M114 97h1M110 98h2M113 98h2M110 99h2M113 99h2M110 100h1M111 101h1M114 105h1M111 106h5M116 107h3M107 108h5M119 108h1M107 109h4M105 110h6M105 111h4M104 112h3" />
<path stroke="#1e2275" d="M105 93h4M105 94h6M105 95h4M110 95h1M105 96h4M111 96h1M105 97h4M110 97h1M112 97h1M115 97h1M106 98h4M115 98h1M106 99h4M106 100h4M111 100h1M113 100h2M107 101h4M107 102h5M107 105h1M111 105h3M110 106h1M108 107h5M114 107h2M112 108h1M116 108h3M120 108h1M105 109h2M111 109h2M111 110h2M109 111h4M107 112h5M104 113h7M104 114h7M114 114h1M107 115h3M114 115h3M114 116h1M113 117h1" />
<path stroke="#888891" d="M107 103h1M109 103h1M107 104h2M113 104h1M122 118h2M124 119h1M124 120h1M103 121h2M124 121h1M101 122h5M123 122h2M99 123h8M122 123h3M97 124h6M122 124h3M94 125h8M122 125h3M93 126h6M122 126h2M92 127h1M124 127h3" />
<path stroke="#a1a1af" d="M108 103h1M110 103h1M122 119h2M103 120h1M122 120h2M101 121h2M122 121h2M99 122h2M122 122h1M97 123h2M95 124h2M125 126h1M93 127h1" />
<path stroke="#190560" d="M109 104h1M108 105h1M106 106h2M104 107h2M102 108h2M101 109h1M99 110h2M98 111h1M96 112h2M94 113h2M92 114h2M89 115h4" />
<path stroke="#171736" d="M119 110h5M118 111h7M118 112h9M120 113h7M123 114h3M107 116h1M106 117h2M107 118h1M107 119h2M108 120h2" />
</svg>