<svg xmlns="http://www.w3.org/2000/svg" viewBox="0 -0.5 200 200" shape-rendering="crispEdges">
<metadata>Made with Pixels to Svg https://codepen.io/shshaw/pen/XbxvNj</metadata>
<path stroke="#ffffff" d="M126 44h16M121 45h26M117 46h34M114 47h40M111 48h46M109 49h50M107 50h54M105 51h58M103 52h62M102 53h65M100 54h69M99 55h72M98 56h74M97 57h76M96 58h11M122 58h52M95 59h5M129 59h46M94 60h3M131 60h45M93 61h2M133 61h43M92 62h1M135 62h42M91 63h1M136 63h42M90 64h1M137 64h42M138 65h41M139 66h41M139 67h41M140 68h41M140 69h41M141 70h41M141 71h41M142 72h41M142 73h41M142 74h41M143 75h40M143 76h41M143 77h41M143 78h42M143 79h42M143 80h42M143 81h42M144 82h41M144 83h41M144 84h42M144 85h42M144 86h42M144 87h42M144 88h42M144 89h42M144 90h42M144 91h42M143 92h43M143 93h43M143 94h42M121 95h1M143 95h42M121 96h2M124 96h1M143 96h42M142 97h43M142 98h42M142 99h42M141 100h43M141 101h43M140 102h43M140 103h43M139 104h44M139 105h43M138 106h44M138 107h44M138 108h43M137 109h44M136 110h44M136 111h44M135 112h44M135 113h44M136 114h42M138 115h40M140 116h37M142 117h34M144 118h32M147 119h28M149 120h25M151 121h22M153 122h18M156 123h14M158 124h11M161 125h7M165 126h1" />
<path stroke="#10101e" d="M115 85h1M116 86h2M118 87h2M117 88h1M118 89h1M119 93h1M118 94h1" />
<path stroke="#020205" d="M115 86h1M116 87h2M118 88h2M119 89h1M119 90h1M119 92h1M118 93h1M120 93h1M122 93h1M119 94h2M123 94h1M118 95h2M118 96h1M118 97h2M119 98h1M118 99h2M119 100h2M121 101h1M118 105h1M129 108h2M132 108h1M128 109h1M132 109h1M114 110h1M128 110h2M113 111h6M129 111h1M112 112h13M129 112h2M111 113h11M110 114h11M109 115h12M108 116h15M105 117h2M108 117h6M115 117h11M129 117h1M105 118h2M108 118h6M118 118h12M105 119h2M108 119h6M121 119h9M104 120h2M108 120h5M124 120h5M104 121h3M108 121h4M127 121h1M104 122h3M109 122h3M104 123h4M110 123h2M105 124h6M96 125h1M106 125h4M124 125h1M97 126h2M125 126h1" />
<path stroke="#b6a5a5" d="M120 90h1M119 91h1" />
<path stroke="#ce283d" d="M120 91h1M121 92h1M124 92h1M121 93h1M124 93h1M122 94h1M122 97h1" />
<path stroke="#a20b1f" d="M123 91h1M120 92h1M123 92h1M121 94h1M124 94h1M120 95h1M122 95h3M120 96h1M123 96h1M120 97h2M123 97h2M121 98h3" />
<path stroke="#1c1c2e" d="M123 93h1" />
<path stroke="#b57e54" d="M119 96h1M129 109h1M133 109h1M130 110h1M133 110h1M130 111h2M133 111h3M131 112h4" />
<path stroke="#303593" d="M115 98h3M115 99h3M116 100h3M122 101h1M116 102h1M113 103h1M116 103h1M113 104h2M116 104h1M113 105h1M108 108h3M106 109h5M105 110h5M119 110h1M103 111h6M102 112h5M103 113h2M110 113h1M108 114h1" />
<path stroke="#caa27a" d="M118 98h1M120 99h1M121 100h1M130 109h2M134 109h1M131 110h2M134 110h2M132 111h1" />
<path stroke="#890c1c" d="M120 98h1M124 98h1M121 99h4M122 100h3" />
<path stroke="#1e2275" d="M114 99h1M113 100h3M113 101h4M112 102h4M111 103h2M114 103h2M111 104h2M115 104h1M117 104h1M111 105h2M114 105h4M111 106h5M118 106h2M111 107h4M118 107h1M110 110h1M115 110h4M119 111h2M111 112h1M102 113h1M103 114h1M109 114h1M107 115h2M105 116h3" />
<path stroke="#151522" d="M117 101h1M123 101h2M117 102h2M123 102h3M117 103h3M124 103h3M118 104h3M125 104h3M119 105h3M127 105h2M120 106h4M129 106h2M121 107h5M130 107h2M123 108h4M131 108h1M124 109h4M125 110h3M127 111h2M128 112h1" />
<path stroke="#2e2e41" d="M118 101h3M125 101h1M119 102h4M126 102h1M120 103h4M127 103h1M121 104h4M128 104h1M122 105h5M129 105h2M124 106h5M131 106h1M126 107h4M132 107h1M127 108h2M133 108h1" />
<path stroke="#000031" d="M116 106h2M115 107h3M114 108h3M113 109h3M112 110h2M111 111h2M109 112h2M107 113h3M105 114h3M104 115h3M102 116h3M101 117h2M99 118h2M97 119h3M96 120h2M92 121h4" />
<path stroke="#888891" d="M111 108h1M113 108h1M111 109h1M116 109h2M103 121h1M124 121h3M103 122h1M126 122h2M102 123h2M125 123h2M99 124h6M123 124h3M97 125h9M123 125h1M125 125h1M95 126h2M123 126h2M96 127h2M123 127h4" />
<path stroke="#a1a1af" d="M112 108h1M117 108h1M101 122h2M124 122h2M99 123h3M123 123h2M96 124h3M122 124h1M95 125h1M122 125h1" />
<path stroke="#190560" d="M112 109h1M111 110h1M109 111h2M107 112h2M105 113h2M104 114h1M102 115h2M101 116h1M99 117h2M97 118h2M95 119h2M92 120h4" />
<path stroke="#171736" d="M122 113h5M121 114h7M121 115h9M123 116h7M107 117h1M126 117h3M107 118h1M107 119h1M106 120h2M107 121h1M107 122h2M108 123h2" />
<path stroke="#d3d3d3" d="M160 125h1" />
</svg>