<svg xmlns="http://www.w3.org/2000/svg" viewBox="0 -0.5 200 200" shape-rendering="crispEdges">
<metadata>Made with Pixels to Svg https://codepen.io/shshaw/pen/XbxvNj</metadata>
<path stroke="#10101e" d="M100 72h2M99 73h1M100 74h1M101 78h1M100 79h1" />
<path stroke="#020205" d="M100 73h2M99 74h1M101 74h1M100 75h2M99 76h1M101 77h1M100 78h1M102 78h1M104 78h1M101 79h2M105 79h1M100 80h2M100 81h1M100 82h2M101 83h1M100 84h2M102 85h1M102 86h1M105 86h1M103 87h3M103 88h3M104 89h2M105 90h1M105 91h1M105 92h1M104 93h1M104 94h1M104 95h1M97 96h1M104 96h1M97 97h1M96 98h3M110 98h1M96 99h3M109 99h3M96 100h2M109 100h3M96 101h2M105 102h1M105 103h1M105 104h2M105 105h2M105 106h3M105 107h1M107 107h1M105 108h1M108 108h1M105 109h1M108 109h2M105 110h1M109 110h1M96 111h2M105 111h1M96 112h3M104 112h1M109 112h1M96 113h1M98 113h2M102 113h3M108 113h2M95 114h2M99 114h2M102 114h2M106 114h4M95 115h3M100 115h9M95 116h3M101 116h8M95 117h7M105 117h3M96 118h5M106 118h1M97 119h3M96 125h1M96 126h1M104 126h1M94 127h1M102 127h2" />
<path stroke="#b6a5a5" d="M102 75h1M101 76h1" />
<path stroke="#ce283d" d="M102 76h1M103 77h1M106 77h1M103 78h1M106 78h1M104 79h1M104 82h1" />
<path stroke="#a20b1f" d="M105 76h1M102 77h1M105 77h1M103 79h1M106 79h1M102 80h1M104 80h3M102 81h1M105 81h1M102 82h2M105 82h2M103 83h3" />
<path stroke="#1c1c2e" d="M105 78h1" />
<path stroke="#ffffff" d="M103 80h1M103 81h2M106 81h1" />
<path stroke="#b57e54" d="M101 81h1M99 101h3M110 101h1M112 102h1" />
<path stroke="#890c1c" d="M102 83h1M106 83h1M103 84h4M104 85h3" />
<path stroke="#caa27a" d="M102 84h1M103 85h1M103 86h2M99 99h1M98 100h3M98 101h1M111 101h3M111 102h1" />
<path stroke="#303593" d="M100 85h2M100 86h2M100 87h3M106 87h1M101 88h2M106 88h1M103 89h1M106 89h2M101 90h1M103 90h2M106 90h2M101 91h2M104 91h1M106 91h2M101 92h1M103 92h1M106 92h1M102 93h2M105 93h2M102 94h2M105 94h2M102 95h1M103 96h1M102 101h6M102 102h3M107 102h1M99 103h1M102 103h3M107 103h2M97 104h7M108 104h1M97 105h7M96 106h8M96 107h8M95 108h8M97 109h6M99 110h3M101 111h1" />
<path stroke="#151522" d="M98 86h2M99 87h1M100 88h1M100 89h2M100 90h1M99 91h2M98 92h2M97 93h2M97 94h2M96 95h2M96 96h1M107 96h1M95 97h2M107 97h1M95 98h1M107 98h3M95 99h1M107 99h2M107 100h2M95 101h1M95 102h1" />
<path stroke="#2e2e41" d="M97 87h2M97 88h3M96 89h4M95 90h5M95 91h4M95 92h3M94 93h3M94 94h3M107 94h2M94 95h2M107 95h2M94 96h2M108 96h2M94 97h1M108 97h2M94 98h1M94 99h1M95 100h1" />
<path stroke="#1e2275" d="M102 89h1M102 90h1M103 91h1M100 92h1M102 92h1M104 92h1M107 92h1M99 93h3M107 93h1M99 94h3M100 95h2M103 95h1M105 95h2M100 96h3M100 97h4M103 100h4M100 102h2M106 102h1M100 103h2M106 103h1M104 104h1M107 104h1M96 105h1M104 105h1M107 105h2M104 106h1M108 106h1M104 107h1M108 107h2M103 108h2M109 108h1M95 109h2M103 109h2M95 110h4M102 110h3M98 111h3M102 111h3M99 112h5M100 113h2M101 114h1" />
<path stroke="#000031" d="M105 96h2M104 97h3M103 98h3M102 99h3M101 100h2M98 102h2M96 103h3M94 104h3M93 105h3M91 106h3M90 107h2M88 108h2M86 109h3M85 110h2M81 111h4" />
<path stroke="#888891" d="M100 98h1M102 98h1M100 99h1M105 99h2M104 117h1M95 118h1M104 118h2M96 119h1M105 119h2M96 120h2M105 120h1M96 121h2M105 121h1M96 122h2M104 122h2M95 123h3M103 123h3M95 124h2M103 124h2M95 125h1M103 125h2M102 126h2M96 127h1M104 127h3" />
<path stroke="#a1a1af" d="M101 98h1M106 98h1M95 119h1M103 119h2M95 120h1M103 120h2M95 121h1M103 121h2M95 122h1M103 122h1M95 126h1M105 126h1M95 127h1" />
<path stroke="#190560" d="M101 99h1M96 102h2M94 103h2M93 104h1M91 105h2M90 106h1M88 107h2M86 108h2M84 109h2M81 110h4" />
<path stroke="#171736" d="M106 107h1M106 108h2M106 109h2M106 110h3M106 111h4M105 112h4M97 113h1M105 113h3M97 114h2M104 114h2M98 115h2M98 116h3" />
</svg>