<svg xmlns="http://www.w3.org/2000/svg" viewBox="0 -0.5 200 200" shape-rendering="crispEdges">
<metadata>Made with Pixels to Svg https://codepen.io/shshaw/pen/XbxvNj</metadata>
<path stroke="#10101e" d="M100 74h2M99 75h1M100 76h1M101 80h1M100 81h1" />
<path stroke="#020205" d="M100 75h2M99 76h1M101 76h1M100 77h2M99 78h1M101 79h1M100 80h1M102 80h1M104 80h1M101 81h2M105 81h1M100 82h2M100 83h1M100 84h2M101 85h1M100 86h2M102 87h1M102 88h1M105 88h1M103 89h3M103 90h3M104 91h2M105 92h1M105 93h1M105 94h1M104 95h1M104 96h1M104 97h1M97 98h1M104 98h1M97 99h1M96 100h3M110 100h1M96 101h3M109 101h3M96 102h2M109 102h3M96 103h2M105 104h1M105 105h1M105 106h2M105 107h2M105 108h3M105 109h1M107 109h1M105 110h1M108 110h1M105 111h1M108 111h2M105 112h1M109 112h1M96 113h2M105 113h1M96 114h3M104 114h1M109 114h1M96 115h1M98 115h2M102 115h3M108 115h2M95 116h2M99 116h2M102 116h2M106 116h4M95 117h3M100 117h9M95 118h3M101 118h8M95 119h7M105 119h3M96 120h5M106 120h1M97 121h3M96 125h1M96 126h1M104 126h1M94 127h1M102 127h2" />
<path stroke="#b6a5a5" d="M102 77h1M101 78h1" />
<path stroke="#ce283d" d="M102 78h1M103 79h1M106 79h1M103 80h1M106 80h1M104 81h1M104 84h1" />
<path stroke="#a20b1f" d="M105 78h1M102 79h1M105 79h1M103 81h1M106 81h1M102 82h1M104 82h3M102 83h1M105 83h1M102 84h2M105 84h2M103 85h3" />
<path stroke="#1c1c2e" d="M105 80h1" />
<path stroke="#ffffff" d="M103 82h1M103 83h2M106 83h1" />
<path stroke="#b57e54" d="M101 83h1M99 103h3M110 103h1M112 104h1" />
<path stroke="#890c1c" d="M102 85h1M106 85h1M103 86h4M104 87h3" />
<path stroke="#caa27a" d="M102 86h1M103 87h1M103 88h2M99 101h1M98 102h3M98 103h1M111 103h3M111 104h1" />
<path stroke="#303593" d="M100 87h2M100 88h2M100 89h3M106 89h1M101 90h2M106 90h1M103 91h1M106 91h2M101 92h1M103 92h2M106 92h2M101 93h2M104 93h1M106 93h2M101 94h1M103 94h1M106 94h1M102 95h2M105 95h2M102 96h2M105 96h2M102 97h1M103 98h1M102 103h6M102 104h3M107 104h1M99 105h1M102 105h3M107 105h2M97 106h7M108 106h1M97 107h7M96 108h8M96 109h8M95 110h8M97 111h6M99 112h3M101 113h1" />
<path stroke="#151522" d="M98 88h2M99 89h1M100 90h1M100 91h2M100 92h1M99 93h2M98 94h2M97 95h2M97 96h2M96 97h2M96 98h1M107 98h1M95 99h2M107 99h1M95 100h1M107 100h3M95 101h1M107 101h2M107 102h2M95 103h1M95 104h1" />
<path stroke="#2e2e41" d="M97 89h2M97 90h3M96 91h4M95 92h5M95 93h4M95 94h3M94 95h3M94 96h3M107 96h2M94 97h2M107 97h2M94 98h2M108 98h2M94 99h1M108 99h2M94 100h1M94 101h1M95 102h1" />
<path stroke="#1e2275" d="M102 91h1M102 92h1M103 93h1M100 94h1M102 94h1M104 94h1M107 94h1M99 95h3M107 95h1M99 96h3M100 97h2M103 97h1M105 97h2M100 98h3M100 99h4M103 102h4M100 104h2M106 104h1M100 105h2M106 105h1M104 106h1M107 106h1M96 107h1M104 107h1M107 107h2M104 108h1M108 108h1M104 109h1M108 109h2M103 110h2M109 110h1M95 111h2M103 111h2M95 112h4M102 112h3M98 113h3M102 113h3M99 114h5M100 115h2M101 116h1" />
<path stroke="#000031" d="M105 98h2M104 99h3M103 100h3M102 101h3M101 102h2M98 104h2M96 105h3M94 106h3M93 107h3M91 108h3M90 109h2M88 110h2M86 111h3M85 112h2M81 113h4" />
<path stroke="#888891" d="M100 100h1M102 100h1M100 101h1M105 101h2M105 120h1M96 121h1M105 121h1M96 122h2M104 122h2M95 123h3M103 123h3M95 124h2M103 124h2M95 125h1M103 125h2M102 126h2M96 127h1M104 127h3" />
<path stroke="#a1a1af" d="M101 100h1M106 100h1M103 119h2M95 120h1M103 120h2M95 121h1M103 121h2M95 122h1M103 122h1M95 126h1M105 126h1M95 127h1" />
<path stroke="#190560" d="M101 101h1M96 104h2M94 105h2M93 106h1M91 107h2M90 108h1M88 109h2M86 110h2M84 111h2M81 112h4" />
<path stroke="#171736" d="M106 109h1M106 110h2M106 111h2M106 112h3M106 113h4M105 114h4M97 115h1M105 115h3M97 116h2M104 116h2M98 117h2M98 118h3" />
</svg>