<svg xmlns="http://www.w3.org/2000/svg" viewBox="0 -0.5 47 65" shape-rendering="crispEdges">
<path stroke="#171723" d="M25 4h2M24 5h1M25 6h1M26 10h1M25 11h1" />
<path stroke="#08080d" d="M25 5h2M24 6h1M26 6h1M25 7h2M24 8h1M26 9h1M25 10h1M27 10h1M29 10h1M26 11h2M30 11h1M25 12h2M25 13h1M25 14h2M26 15h1M25 16h2M27 17h1M27 18h1M30 18h1M28 19h3M28 20h3M29 21h2M30 22h1M30 23h1M30 24h1M29 25h1M29 26h1M29 27h1M22 28h1M29 28h1M22 29h1M21 30h3M35 30h1M21 31h3M34 31h3M21 32h2M34 32h3M21 33h2M30 34h1M30 35h1M30 36h2M30 37h2M30 38h3M30 39h1M32 39h1M30 40h1M33 40h1M30 41h1M33 41h2M30 42h1M34 42h1M21 43h2M30 43h1M21 44h3M29 44h1M34 44h1M21 45h1M23 45h2M27 45h3M33 45h2M20 46h2M24 46h2M27 46h2M31 46h4M20 47h3M25 47h9M20 48h3M26 48h8M20 49h7M30 49h3M21 50h5M31 50h1M22 51h3M21 57h1M21 58h1M29 58h1M19 59h1M27 59h2" />
<path stroke="#b5a4a4" d="M27 7h1M26 8h1" />
<path stroke="#cd2c3f" d="M27 8h1M28 9h1M31 9h1M28 10h1M31 10h1M29 11h1M29 14h1" />
<path stroke="#a11324" d="M30 8h1M27 9h1M30 9h1M28 11h1M31 11h1M27 12h1M29 12h3M27 13h1M30 13h1M27 14h2M30 14h2M28 15h3" />
<path stroke="#222232" d="M30 10h1" />
<path stroke="#ffffff" d="M28 12h1M28 13h2M31 13h1" />
<path stroke="#b47d55" d="M26 13h1M24 33h3M35 33h1M37 34h1" />
<path stroke="#881422" d="M27 15h1M31 15h1M28 16h4M29 17h3" />
<path stroke="#c9a179" d="M27 16h1M28 17h1M28 18h2M24 31h1M23 32h3M23 33h1M36 33h3M36 34h1" />
<path stroke="#333892" d="M25 17h2M25 18h2M25 19h3M31 19h1M26 20h2M31 20h1M28 21h1M31 21h2M26 22h1M28 22h2M31 22h2M26 23h2M29 23h1M31 23h2M26 24h1M28 24h1M31 24h1M27 25h2M30 25h2M27 26h2M30 26h2M27 27h1M28 28h1M27 33h6M27 34h3M32 34h1M24 35h1M27 35h3M32 35h2M22 36h7M33 36h1M22 37h7M21 38h8M21 39h8M20 40h8M22 41h6M24 42h3M26 43h1" />
<path stroke="#1c1c27" d="M23 18h2M24 19h1M25 20h1M25 21h2M25 22h1M24 23h2M23 24h2M22 25h2M22 26h2M21 27h2M21 28h1M32 28h1M20 29h2M32 29h1M20 30h1M32 30h3M20 31h1M32 31h2M32 32h2M20 33h1M20 34h1" />
<path stroke="#323243" d="M22 19h2M22 20h3M21 21h4M20 22h5M20 23h4M20 24h3M19 25h3M19 26h3M32 26h2M19 27h2M32 27h2M19 28h2M33 28h2M19 29h1M33 29h2M19 30h1M19 31h1M20 32h1" />
<path stroke="#232774" d="M27 21h1M27 22h1M28 23h1M25 24h1M27 24h1M29 24h1M32 24h1M24 25h3M32 25h1M24 26h3M25 27h2M28 27h1M30 27h2M25 28h3M25 29h4M28 32h4M25 34h2M31 34h1M25 35h2M31 35h1M29 36h1M32 36h1M21 37h1M29 37h1M32 37h2M29 38h1M33 38h1M29 39h1M33 39h2M28 40h2M34 40h1M20 41h2M28 41h2M20 42h4M27 42h3M23 43h3M27 43h3M24 44h5M25 45h2M26 46h1" />
<path stroke="#000334" d="M30 28h2M29 29h3M28 30h3M27 31h3M26 32h2M23 34h2M21 35h3M19 36h3M18 37h3M16 38h3M15 39h2M13 40h2M11 41h3M10 42h2M6 43h4" />
<path stroke="#878790" d="M25 30h1M27 30h1M25 31h1M30 31h2M29 49h1M20 50h1M29 50h2M21 51h1M30 51h2M21 52h2M30 52h1M21 53h2M30 53h1M21 54h2M29 54h2M20 55h3M28 55h3M20 56h2M28 56h2M20 57h1M28 57h2M27 58h2M21 59h1M29 59h3" />
<path stroke="#a0a0ad" d="M26 30h1M31 30h1M20 51h1M28 51h2M20 52h1M28 52h2M20 53h1M28 53h2M20 54h1M28 54h1M20 58h1M30 58h1M20 59h1" />
<path stroke="#1f0d60" d="M26 31h1M21 34h2M19 35h2M18 36h1M16 37h2M15 38h1M13 39h2M11 40h2M9 41h2M6 42h4" />
<path stroke="#1d1d39" d="M31 39h1M31 40h2M31 41h2M31 42h3M31 43h4M30 44h4M22 45h1M30 45h3M22 46h2M29 46h2M23 47h2M23 48h3" />
</svg>