<svg xmlns="http://www.w3.org/2000/svg" viewBox="0 -0.5 200 200" shape-rendering="crispEdges">
<metadata>Made with Pixels to Svg https://codepen.io/shshaw/pen/XbxvNj</metadata>
<path stroke="#10101e" d="M100 72h2M99 73h1M100 74h1M101 79h1M100 80h1" />
<path stroke="#020205" d="M100 73h2M99 74h1M101 74h1M100 75h2M99 76h1M101 76h1M101 78h1M100 79h1M102 79h1M104 79h1M101 80h2M105 80h1M100 81h2M100 82h1M100 83h2M101 84h1M100 85h2M102 86h1M102 87h1M105 87h1M103 88h3M103 89h3M104 90h2M105 91h1M105 92h1M105 93h1M104 94h1M104 95h1M97 96h1M104 96h1M97 97h1M96 98h3M110 98h1M96 99h3M109 99h3M96 100h2M109 100h3M96 101h2M105 103h1M105 104h2M105 105h2M105 106h3M105 107h1M107 107h1M105 108h1M108 108h1M105 109h1M108 109h1M105 110h1M109 110h1M96 111h1M104 111h2M109 111h1M96 112h3M104 112h2M96 113h4M104 113h1M109 113h1M96 114h1M98 114h7M108 114h2M95 115h2M99 115h5M106 115h4M95 116h3M100 116h9M95 117h3M101 117h8M95 118h7M105 118h3M96 119h5M106 119h1M97 120h3M96 125h1M96 126h1M104 126h1M94 127h1M102 127h2" />
<path stroke="#b6a5a5" d="M102 76h1M101 77h1" />
<path stroke="#ce283d" d="M102 77h1M103 78h1M106 78h1M103 79h1M106 79h1M104 80h1M104 83h1" />
<path stroke="#a20b1f" d="M105 77h1M102 78h1M105 78h1M103 80h1M106 80h1M102 81h1M104 81h3M102 82h1M105 82h1M102 83h2M105 83h2M103 84h3" />
<path stroke="#1c1c2e" d="M105 79h1" />
<path stroke="#ffffff" d="M103 81h1M103 82h2M106 82h1" />
<path stroke="#b57e54" d="M101 82h1M99 101h3M110 101h1M112 102h1" />
<path stroke="#890c1c" d="M102 84h1M106 84h1M103 85h4M104 86h3" />
<path stroke="#caa27a" d="M102 85h1M103 86h1M103 87h2M99 99h1M98 100h3M98 101h1M111 101h3M111 102h1" />
<path stroke="#151522" d="M98 86h2M99 87h1M100 88h1M100 89h2M100 90h1M99 91h2M98 92h2M97 93h2M97 94h2M96 95h2M96 96h1M107 96h1M95 97h2M107 97h1M95 98h1M107 98h3M95 99h1M107 99h2M107 100h2M95 101h1M95 102h1" />
<path stroke="#303593" d="M100 86h2M100 87h2M101 88h2M106 88h1M102 89h1M106 89h1M103 90h1M106 90h2M101 91h1M103 91h2M106 91h2M101 92h2M104 92h1M106 92h2M101 93h1M103 93h1M106 93h1M102 94h2M105 94h2M102 95h2M105 95h2M102 96h1M103 97h1M102 102h6M102 103h3M107 103h2M99 104h1M102 104h3M107 104h2M97 105h7M108 105h1M97 106h7M96 107h8M97 108h6M98 109h5M99 110h4" />
<path stroke="#2e2e41" d="M97 87h2M97 88h3M96 89h4M95 90h5M95 91h4M95 92h3M94 93h3M94 94h3M108 94h1M94 95h2M107 95h2M94 96h2M108 96h2M94 97h1M108 97h2M94 98h1M94 99h1M95 100h1" />
<path stroke="#1e2275" d="M101 90h2M102 91h1M100 92h1M103 92h1M99 93h2M102 93h1M104 93h1M107 93h1M99 94h3M107 94h1M99 95h3M100 96h2M103 96h1M100 97h3M100 98h3M106 98h1M102 101h5M100 102h2M99 103h3M106 103h1M97 104h2M100 104h2M96 105h1M104 105h1M107 105h1M96 106h1M104 106h1M108 106h1M104 107h1M108 107h2M95 108h2M103 108h2M109 108h1M95 109h3M103 109h2M109 109h1M95 110h4M103 110h2M97 111h7M99 112h5M100 113h4" />
<path stroke="#000031" d="M105 96h2M104 97h3M103 98h3M102 99h3M101 100h2M98 102h2M96 103h3M94 104h3M93 105h3M91 106h3M90 107h2M88 108h2M86 109h3M85 110h2M81 111h4" />
<path stroke="#888891" d="M100 99h1M103 100h4M104 118h1M105 119h1M96 120h1M105 120h1M96 121h2M105 121h1M96 122h2M104 122h2M95 123h3M103 123h3M95 124h2M103 124h2M95 125h1M103 125h2M102 126h2M96 127h1M104 127h3" />
<path stroke="#190560" d="M101 99h1M96 102h2M94 103h2M93 104h1M91 105h2M90 106h1M88 107h2M86 108h2M84 109h2M81 110h4" />
<path stroke="#a1a1af" d="M105 99h2M95 119h1M103 119h2M95 120h1M103 120h2M95 121h1M103 121h2M95 122h1M103 122h1M95 126h1M105 126h1M95 127h1" />
<path stroke="#171736" d="M106 107h1M106 108h2M106 109h2M106 110h3M106 111h3M106 112h4M105 113h4M97 114h1M105 114h3M97 115h2M104 115h2M98 116h2M98 117h3" />
</svg>