<svg xmlns="http://www.w3.org/2000/svg" viewBox="0 -0.5 200 200" shape-rendering="crispEdges">
<metadata>Made with Pixels to Svg https://codepen.io/shshaw/pen/XbxvNj</metadata>
<path stroke="#10101e" d="M100 74h2M99 75h1M100 76h1M101 79h1M100 80h1" />
<path stroke="#020205" d="M100 75h2M99 76h1M101 76h1M99 78h1M101 78h1M100 79h1M102 79h1M104 79h1M101 80h2M105 80h1M100 81h2M100 82h1M100 83h2M101 84h1M100 85h2M102 86h1M102 87h1M105 87h1M103 88h3M103 89h3M104 90h2M105 91h1M105 92h1M105 93h1M104 94h1M104 95h1M104 96h1M104 97h1M97 98h1M104 98h1M97 99h1M96 100h3M110 100h1M96 101h3M109 101h3M96 102h2M109 102h3M96 103h2M105 103h1M105 104h1M105 105h1M105 106h2M105 107h3M105 108h1M107 108h1M105 109h1M108 109h1M105 110h1M108 110h1M105 111h1M108 111h1M105 112h1M109 112h1M96 113h1M104 113h1M109 113h1M96 114h1M104 114h1M108 114h2M95 115h2M103 115h1M106 115h4M95 116h3M100 116h9M95 117h3M101 117h8M95 118h7M105 118h3M96 119h5M106 119h1M97 120h3M96 125h1M96 126h1M104 126h1M94 127h1M102 127h2" />
<path stroke="#b6a5a5" d="M102 76h1M101 77h1" />
<path stroke="#ce283d" d="M102 77h1M103 78h1M106 78h1M103 79h1M106 79h1M104 80h1M104 83h1" />
<path stroke="#a20b1f" d="M105 77h1M102 78h1M105 78h1M103 80h1M106 80h1M102 81h1M104 81h3M102 82h1M105 82h1M102 83h2M105 83h2M103 84h3" />
<path stroke="#1c1c2e" d="M105 79h1" />
<path stroke="#ffffff" d="M103 81h1M103 82h2M106 82h1" />
<path stroke="#b57e54" d="M101 82h1M99 103h3M110 103h1M112 104h1" />
<path stroke="#890c1c" d="M102 84h1M106 84h1M103 85h4M104 86h3" />
<path stroke="#caa27a" d="M102 85h1M103 86h1M103 87h2M99 101h1M98 102h3M98 103h1M111 103h3M111 104h1" />
<path stroke="#303593" d="M100 86h2M100 87h2M100 88h3M106 88h1M101 89h2M106 89h1M103 90h1M106 90h2M103 91h2M106 91h2M101 92h2M104 92h1M106 92h2M101 93h1M103 93h1M106 93h1M102 94h2M105 94h2M102 95h2M105 95h2M102 96h1M103 97h1M103 102h5M102 103h3M107 103h1M102 104h3M107 104h1M99 105h5M108 105h1M97 106h7M96 107h8M96 108h8M95 109h9M97 110h6M98 111h5M99 112h3" />
<path stroke="#1e2275" d="M99 87h1M100 89h1M101 90h2M102 91h1M103 92h1M102 93h1M104 93h1M107 93h1M100 94h2M107 94h1M99 95h3M100 96h2M103 96h1M105 96h2M100 97h3M105 97h2M100 98h4M100 101h1M105 101h2M106 103h1M100 104h2M106 104h1M104 105h1M106 105h2M104 106h1M107 106h2M104 107h1M108 107h1M104 108h1M108 108h2M104 109h1M109 109h1M95 110h2M103 110h2M109 110h1M95 111h3M103 111h2M109 111h1M96 112h3M102 112h3M97 113h7M98 114h6M99 115h4" />
<path stroke="#151522" d="M98 88h2M99 89h1M100 90h1M100 91h2M100 92h1M99 93h2M98 94h2M97 95h2M97 96h2M96 97h2M96 98h1M107 98h1M95 99h2M107 99h1M95 100h1M107 100h3M95 101h1M107 101h2M108 102h1M95 103h1M95 104h1" />
<path stroke="#2e2e41" d="M97 89h2M97 90h3M96 91h4M95 92h5M95 93h4M95 94h3M94 95h3M107 95h1M94 96h3M107 96h2M94 97h2M107 97h2M94 98h2M108 98h2M94 99h1M108 99h2M94 100h1M94 101h1M95 102h1" />
<path stroke="#000031" d="M105 98h2M104 99h3M103 100h3M102 101h3M101 102h2M98 104h2M96 105h3M94 106h3M93 107h3M91 108h3M90 109h2M88 110h2M86 111h3M85 112h2M81 113h4" />
<path stroke="#888891" d="M100 99h1M102 99h1M100 100h3M106 100h1M104 118h1M105 119h1M96 120h1M105 120h1M96 121h2M105 121h1M96 122h2M104 122h2M95 123h3M103 123h3M95 124h2M103 124h2M95 125h1M103 125h2M102 126h2M96 127h1M104 127h3" />
<path stroke="#a1a1af" d="M101 99h1M103 99h1M95 119h1M103 119h2M95 120h1M103 120h2M95 121h1M103 121h2M95 122h1M103 122h1M95 126h1M105 126h1M95 127h1" />
<path stroke="#190560" d="M101 101h1M96 104h2M94 105h2M93 106h1M91 107h2M90 108h1M88 109h2M86 110h2M84 111h2M81 112h4" />
<path stroke="#171736" d="M106 108h1M106 109h2M106 110h2M106 111h2M106 112h3M105 113h4M97 114h1M105 114h3M97 115h2M104 115h2M98 116h2M98 117h3" />
</svg>