<svg xmlns="http://www.w3.org/2000/svg" viewBox="0 -0.5 200 200" shape-rendering="crispEdges">
<metadata>Made with Pixels to Svg https://codepen.io/shshaw/pen/XbxvNj</metadata>
<path stroke="#10101e" d="M103 81h3M102 82h2M105 82h1M106 86h1M105 87h1" />
<path stroke="#020205" d="M104 82h1M106 82h1M105 83h2M106 85h1M105 86h1M107 86h1M109 86h1M106 87h2M110 87h1M105 88h2M105 89h1M103 90h4M105 91h2M105 92h1M106 93h2M106 94h3M107 95h2M108 96h1M108 97h1M94 98h2M108 98h1M94 99h2M106 99h2M104 100h2M102 101h2M102 102h3M102 103h4M103 104h4M104 105h4M107 106h3M106 107h2M110 107h2M106 108h2M112 108h1M106 109h3M96 110h1M106 110h3M86 111h2M96 111h2M106 111h5M96 112h1M107 112h5M98 113h2M102 113h2M108 113h6M96 114h1M99 114h1M101 114h2M109 114h7M95 115h2M100 115h3M110 115h6M95 116h7M114 116h2M95 117h6M96 118h4M103 124h1M104 125h2" />
<path stroke="#b6a5a5" d="M107 83h1M106 84h1" />
<path stroke="#ce283d" d="M107 84h1M108 85h1M111 85h1M108 86h1M111 86h1M109 87h1M109 90h1" />
<path stroke="#a20b1f" d="M110 84h1M107 85h1M110 85h1M108 87h1M111 87h1M107 88h1M109 88h3M107 89h1M110 89h1M107 90h2M110 90h2M108 91h3" />
<path stroke="#1c1c2e" d="M110 86h1" />
<path stroke="#ffffff" d="M108 88h1M108 89h2M111 89h1" />
<path stroke="#b57e54" d="M106 89h1M98 100h4M95 101h1M99 101h3M93 102h3M99 102h3M93 103h3M99 103h2" />
<path stroke="#303593" d="M103 91h2M103 92h2M104 93h2M104 94h2M109 94h1M106 95h1M109 95h2M104 96h1M106 96h2M109 96h2M104 97h2M107 97h1M109 97h2M104 98h1M106 98h1M109 98h1M105 99h1M103 100h1M106 100h2M101 103h1M97 105h7M96 106h10M97 107h8M98 108h7M99 109h5M100 110h2" />
<path stroke="#890c1c" d="M107 91h1M111 91h1M108 92h4M109 93h3" />
<path stroke="#2e2e41" d="M94 92h9M93 93h9M93 94h2M92 95h2M111 95h1M92 96h1M111 96h1M92 97h1M111 97h2M92 98h1M112 98h1M112 99h2M109 100h1M112 100h2M104 101h6M113 101h1M105 102h3" />
<path stroke="#caa27a" d="M106 92h2M108 93h1M94 100h3M93 101h2" />
<path stroke="#151522" d="M102 93h2M95 94h9M94 95h9M93 96h3M99 96h3M93 97h3M93 98h1M111 98h1M92 99h2M110 99h2M92 100h2M110 100h2M92 101h1M110 101h3M108 102h6M106 103h7M107 104h5M108 105h1" />
<path stroke="#1e2275" d="M103 95h3M102 96h2M105 96h1M99 97h5M106 97h1M99 98h5M105 98h1M107 98h1M110 98h1M99 99h6M108 99h2M102 100h1M108 100h1M98 103h1M98 104h5M109 105h2M106 106h1M110 106h2M95 107h2M105 107h1M95 108h3M105 108h1M95 109h4M104 109h2M97 110h3M102 110h4M98 111h7M98 112h6M100 113h2M100 114h1" />
<path stroke="#190560" d="M96 101h3M84 102h9M75 103h10" />
<path stroke="#000031" d="M96 102h3M72 103h3M85 103h8M73 104h13" />
<path stroke="#171736" d="M108 107h2M108 108h4M109 109h5M109 110h6M111 111h4M97 112h1M112 112h4M96 113h2M114 113h2M97 114h2M97 115h3" />
<path stroke="#a1a1af" d="M85 109h4M86 110h1M89 110h2M90 111h3M92 112h3M111 116h1M110 117h2M109 118h2M108 119h2M107 120h2M106 121h2M105 122h1M104 123h1M104 124h1M106 125h1" />
<path stroke="#888891" d="M84 110h2M87 110h2M82 111h4M88 111h2M89 112h3M90 113h6M92 114h4M93 115h2M94 116h1M112 116h2M112 117h3M111 118h3M110 119h3M109 120h3M108 121h3M106 122h4M105 123h3M105 124h2M103 125h1M103 126h4M104 127h4" />
</svg>