<svg xmlns="http://www.w3.org/2000/svg" viewBox="0 -0.5 200 200" shape-rendering="crispEdges">
<metadata>Made with Pixels to Svg https://codepen.io/shshaw/pen/XbxvNj</metadata>
<path stroke="#10101e" d="M105 81h1M106 85h1M105 86h1" />
<path stroke="#020205" d="M106 81h1M104 82h3M103 83h2M106 84h1M105 85h1M107 85h1M109 85h1M106 86h2M110 86h1M105 87h2M105 88h1M103 89h4M105 90h2M105 91h1M106 92h2M106 93h3M107 94h2M108 95h1M108 96h1M94 97h2M108 97h1M94 98h2M106 98h2M104 99h2M103 100h1M102 101h3M97 102h1M102 102h4M103 103h3M104 104h2M97 112h2M97 113h4M105 113h1M97 114h9M97 115h2M102 115h4M100 116h1M104 116h2M100 117h5M93 119h1M92 120h1M89 124h1M90 125h2" />
<path stroke="#b6a5a5" d="M107 82h1M106 83h1" />
<path stroke="#ce283d" d="M107 83h1M108 84h1M111 84h1M108 85h1M111 85h1M109 86h1M109 89h1" />
<path stroke="#a20b1f" d="M110 83h1M107 84h1M110 84h1M108 86h1M111 86h1M107 87h1M109 87h3M107 88h1M110 88h1M107 89h2M110 89h2M108 90h3" />
<path stroke="#1c1c2e" d="M110 85h1" />
<path stroke="#ffffff" d="M108 87h1M108 88h2M111 88h1" />
<path stroke="#b57e54" d="M106 88h1M99 99h3M95 100h1M99 100h3M93 101h3M99 101h3M93 102h3M99 102h2" />
<path stroke="#303593" d="M103 90h2M103 91h2M104 92h2M104 93h2M109 93h1M106 94h1M109 94h2M104 95h1M106 95h2M109 95h2M104 96h2M107 96h1M109 96h2M104 97h1M106 97h1M109 97h1M99 104h5M98 105h8M98 106h8M98 107h8M98 108h8M98 109h7M99 110h6M101 111h3" />
<path stroke="#890c1c" d="M107 90h1M111 90h1M108 91h4M109 92h3" />
<path stroke="#2e2e41" d="M94 91h9M93 92h9M93 93h2M92 94h2M111 94h1M92 95h1M111 95h1M92 96h1M111 96h2M92 97h1M112 97h1M112 98h2M109 99h1M112 99h2M104 100h6M113 100h1M105 101h3" />
<path stroke="#caa27a" d="M106 91h2M108 92h1M94 99h3M98 99h1M93 100h2" />
<path stroke="#151522" d="M102 92h2M95 93h9M94 94h9M93 95h3M99 95h3M93 96h3M93 97h1M111 97h1M92 98h2M110 98h2M92 99h2M110 99h2M92 100h1M110 100h3M108 101h6M106 102h7M106 103h6M106 104h3" />
<path stroke="#1e2275" d="M103 94h3M102 95h2M105 95h1M99 96h5M106 96h1M99 97h5M105 97h1M107 97h1M110 97h1M99 98h7M108 98h2M102 99h2M106 99h3M102 100h1M98 102h1M101 102h1M99 103h4M106 105h2M106 106h1M106 107h1M106 108h1M105 109h2M97 110h2M105 110h2M97 111h4M104 111h3M99 112h7M101 113h4" />
<path stroke="#190560" d="M96 100h3M84 101h9M75 102h10" />
<path stroke="#000031" d="M96 101h3M72 102h3M85 102h8M73 103h13" />
<path stroke="#171736" d="M99 115h3M101 116h3" />
<path stroke="#a1a1af" d="M97 116h1M94 117h3M90 118h7M90 119h1M89 120h1M93 120h2M92 121h2M91 122h1M90 123h1M90 124h1M92 125h1" />
<path stroke="#888891" d="M98 116h2M97 117h3M97 118h7M91 119h2M94 119h9M90 120h2M95 120h3M89 121h2M94 121h3M89 122h1M92 122h4M91 123h3M91 124h2M89 125h1M89 126h4M90 127h4" />
</svg>