<svg xmlns="http://www.w3.org/2000/svg" viewBox="0 -0.5 200 200" shape-rendering="crispEdges">
<metadata>Made with Pixels to Svg https://codepen.io/shshaw/pen/XbxvNj</metadata>
<path stroke="#10101e" d="M105 80h1M106 84h1M105 85h1" />
<path stroke="#020205" d="M106 80h1M104 81h3M103 82h2M106 83h1M105 84h1M107 84h1M109 84h1M106 85h2M110 85h1M105 86h2M105 87h1M103 88h4M105 89h2M105 90h1M106 91h2M106 92h3M107 93h2M108 94h1M108 95h1M94 96h2M108 96h1M94 97h2M106 97h2M104 98h2M102 99h2M102 100h3M102 101h4M103 102h3M104 103h2M104 104h1M104 105h3M105 106h3M105 107h4M92 108h2M105 108h5M90 109h5M106 109h5M89 110h2M93 110h3M106 110h5M89 111h1M95 111h1M107 111h2M110 111h1M95 112h2M105 112h2M110 112h1M95 113h3M103 113h4M109 113h1M87 114h1M93 114h4M105 114h1M107 114h2M87 115h1M91 115h5M87 116h8M87 117h6M88 118h3M98 119h1M97 120h1M80 125h1M81 126h2" />
<path stroke="#b6a5a5" d="M107 81h1M106 82h1" />
<path stroke="#ce283d" d="M107 82h1M108 83h1M111 83h1M108 84h1M111 84h1M109 85h1M109 88h1" />
<path stroke="#a20b1f" d="M110 82h1M107 83h1M110 83h1M108 85h1M111 85h1M107 86h1M109 86h3M107 87h1M110 87h1M107 88h2M110 88h2M108 89h3" />
<path stroke="#1c1c2e" d="M110 84h1" />
<path stroke="#ffffff" d="M108 86h1M108 87h2M111 87h1" />
<path stroke="#b57e54" d="M106 87h1M99 98h3M95 99h1M99 99h3M93 100h3M99 100h3M93 101h3M99 101h2" />
<path stroke="#303593" d="M103 89h2M103 90h2M104 91h2M104 92h2M109 92h1M106 93h1M109 93h2M104 94h1M106 94h2M109 94h2M104 95h2M107 95h1M109 95h2M104 96h1M106 96h1M109 96h1M101 104h2M99 105h5M98 106h6M97 107h8M97 108h8M98 109h8M98 110h8M98 111h6M99 112h2" />
<path stroke="#890c1c" d="M107 89h1M111 89h1M108 90h4M109 91h3" />
<path stroke="#2e2e41" d="M94 90h9M93 91h9M93 92h2M92 93h2M111 93h1M92 94h1M111 94h1M92 95h1M111 95h2M92 96h1M112 96h1M112 97h2M109 98h1M112 98h2M104 99h6M113 99h1M105 100h3" />
<path stroke="#caa27a" d="M106 90h2M108 91h1M94 98h3M98 98h1M93 99h2" />
<path stroke="#151522" d="M102 91h2M95 92h9M94 93h9M93 94h3M99 94h3M93 95h3M93 96h1M111 96h1M92 97h2M110 97h2M92 98h2M110 98h2M92 99h1M110 99h3M108 100h6M106 101h7M106 102h6M106 103h3" />
<path stroke="#1e2275" d="M103 93h3M102 94h2M105 94h1M99 95h5M106 95h1M99 96h5M105 96h1M107 96h1M110 96h1M99 97h7M108 97h2M102 98h2M106 98h3M97 101h2M101 101h1M96 102h7M95 103h9M95 104h6M103 104h1M94 105h5M93 106h5M104 106h1M92 107h5M91 108h1M94 108h3M95 109h3M96 110h2M96 111h2M104 111h3M97 112h2M101 112h4M98 113h5M98 114h4M96 115h1M95 116h1M93 117h2" />
<path stroke="#190560" d="M96 99h3M84 100h9M75 101h10" />
<path stroke="#000031" d="M96 100h3M72 101h3M85 101h8M73 102h13" />
<path stroke="#171736" d="M91 110h2M90 111h5M109 111h1M88 112h7M107 112h3M88 113h7M107 113h2M88 114h5M106 114h1M88 115h3" />
<path stroke="#888891" d="M102 114h3M102 115h5M101 116h4M100 117h3M91 118h1M99 118h2M88 119h3M97 119h1M87 120h3M96 120h1M86 121h3M96 121h1M85 122h3M96 122h1M83 123h4M95 123h1M82 124h3M82 125h2M80 126h1M80 127h4M81 128h4" />
<path stroke="#a1a1af" d="M100 115h2M99 116h2M98 117h2M87 118h1M96 118h3M86 119h2M95 119h2M85 120h2M95 120h1M84 121h2M95 121h1M83 122h2M95 122h1M82 123h1M81 124h1M81 125h1M83 126h1" />
</svg>