<svg xmlns="http://www.w3.org/2000/svg" viewBox="0 -0.5 200 200" shape-rendering="crispEdges">
<metadata>Made with Pixels to Svg https://codepen.io/shshaw/pen/XbxvNj</metadata>
<path stroke="#10101e" d="M104 79h2M103 80h1M105 80h1M102 81h1M106 84h1M105 85h1" />
<path stroke="#020205" d="M104 80h1M106 80h1M105 81h2M106 83h1M105 84h1M107 84h1M109 84h1M106 85h2M110 85h1M105 86h2M105 87h1M103 88h4M105 89h2M105 90h1M106 91h2M106 92h3M107 93h2M108 94h1M108 95h1M94 96h2M108 96h1M94 97h2M106 97h2M104 98h2M102 99h2M102 100h3M102 101h4M103 102h3M105 103h1M105 104h1M105 105h3M105 106h5M106 107h5M106 108h7M107 109h6M94 110h1M107 110h4M112 110h1M87 111h1M94 111h2M107 111h3M112 111h1M87 112h1M93 112h4M107 112h3M87 113h2M91 113h6M106 113h3M110 113h2M87 114h9M87 115h7M77 116h1M89 116h3M78 117h1M103 118h1M102 119h1" />
<path stroke="#b6a5a5" d="M107 81h1M106 82h1" />
<path stroke="#ce283d" d="M107 82h1M108 83h1M111 83h1M108 84h1M111 84h1M109 85h1M109 88h1" />
<path stroke="#a20b1f" d="M110 82h1M107 83h1M110 83h1M108 85h1M111 85h1M107 86h1M109 86h3M107 87h1M110 87h1M107 88h2M110 88h2M108 89h3" />
<path stroke="#1c1c2e" d="M110 84h1" />
<path stroke="#ffffff" d="M108 86h1M108 87h2M111 87h1" />
<path stroke="#b57e54" d="M106 87h1M99 98h3M95 99h1M99 99h3M93 100h3M99 100h3M93 101h3M99 101h2" />
<path stroke="#303593" d="M103 89h2M103 90h2M104 91h2M104 92h2M109 92h1M106 93h1M109 93h2M104 94h1M106 94h2M109 94h2M104 95h2M107 95h1M109 95h2M104 96h1M106 96h1M109 96h1M102 105h3M100 106h5M99 107h7M99 108h7M99 109h8M99 110h8M100 111h7M101 112h6M102 113h2" />
<path stroke="#890c1c" d="M107 89h1M111 89h1M108 90h4M109 91h3" />
<path stroke="#2e2e41" d="M94 90h9M93 91h9M93 92h2M92 93h2M111 93h1M92 94h1M111 94h1M92 95h1M111 95h2M92 96h1M112 96h1M112 97h2M109 98h1M112 98h2M104 99h6M113 99h1M105 100h3" />
<path stroke="#caa27a" d="M106 90h2M108 91h1M94 98h3M98 98h1M93 99h2" />
<path stroke="#151522" d="M102 91h2M95 92h9M94 93h9M93 94h3M99 94h3M93 95h3M93 96h1M111 96h1M92 97h2M110 97h2M92 98h2M110 98h2M92 99h1M110 99h3M108 100h6M106 101h7M106 102h6M106 103h3" />
<path stroke="#1e2275" d="M103 93h3M102 94h2M105 94h1M99 95h5M106 95h1M99 96h5M105 96h1M107 96h1M110 96h1M99 97h7M108 97h2M102 98h2M106 98h3M97 101h2M101 101h1M95 102h8M94 103h11M93 104h12M92 105h10M91 106h9M90 107h9M89 108h2M92 108h7M93 109h6M95 110h4M96 111h4M97 112h4M97 113h5M104 113h2M96 114h1M98 114h7M94 115h2M100 115h4M92 116h2" />
<path stroke="#190560" d="M96 99h3M84 100h9M75 101h10" />
<path stroke="#000031" d="M96 100h3M72 101h3M85 101h8M73 102h13" />
<path stroke="#171736" d="M91 108h1M89 109h4M88 110h6M111 110h1M88 111h6M110 111h2M88 112h5M110 112h2M89 113h2M109 113h1" />
<path stroke="#a1a1af" d="M82 113h5M77 114h10M105 114h2M76 115h2M104 115h2M78 116h1M103 116h2M101 117h3M100 118h2M100 119h1M100 120h1M100 121h1" />
<path stroke="#888891" d="M76 114h1M107 114h5M75 115h1M78 115h9M106 115h4M75 116h2M79 116h10M105 116h3M75 117h3M104 117h2M76 118h2M102 118h1M77 119h1M101 119h1M101 120h1M101 121h1M100 122h1" />
</svg>