<svg xmlns="http://www.w3.org/2000/svg" viewBox="0 -0.5 200 200" shape-rendering="crispEdges">
<metadata>Made with Pixels to Svg https://codepen.io/shshaw/pen/XbxvNj</metadata>
<path stroke="#020205" d="M102 79h1M103 80h1M103 81h1M104 82h1M106 82h1M105 83h2M106 85h1M105 86h1M107 86h1M109 86h1M106 87h2M110 87h1M105 88h2M105 89h1M103 90h4M105 91h2M105 92h1M106 93h2M106 94h3M107 95h2M108 96h1M108 97h1M94 98h2M108 98h1M94 99h2M106 99h2M104 100h2M102 101h2M102 102h3M102 103h4M104 104h2M105 105h1M80 111h1M79 112h1M104 112h1M103 113h2M94 114h2M103 114h2M89 115h1M94 115h3M102 115h2M89 116h1M93 116h4M101 116h3M89 117h7M98 117h6M89 118h6M100 118h4M90 119h5M101 119h4M96 124h1M97 125h1M97 126h1" />
<path stroke="#10101e" d="M104 81h2M105 82h1M106 86h1M105 87h1" />
<path stroke="#b6a5a5" d="M107 83h1M106 84h1" />
<path stroke="#ce283d" d="M107 84h1M108 85h1M111 85h1M108 86h1M111 86h1M109 87h1M109 90h1" />
<path stroke="#a20b1f" d="M110 84h1M107 85h1M110 85h1M108 87h1M111 87h1M107 88h1M109 88h3M107 89h1M110 89h1M107 90h2M110 90h2M108 91h3" />
<path stroke="#1c1c2e" d="M110 86h1" />
<path stroke="#ffffff" d="M108 88h1M108 89h2M111 89h1" />
<path stroke="#b57e54" d="M106 89h1M98 100h4M95 101h1M99 101h3M93 102h3M99 102h3M93 103h3M99 103h2" />
<path stroke="#303593" d="M103 91h2M103 92h2M104 93h2M104 94h2M109 94h1M106 95h1M109 95h2M104 96h1M106 96h2M109 96h2M104 97h2M107 97h1M109 97h2M104 98h1M106 98h1M109 98h1M99 107h4M98 108h5M97 109h7M97 110h7M98 111h6M98 112h6M99 113h4M99 114h3" />
<path stroke="#890c1c" d="M107 91h1M111 91h1M108 92h4M109 93h3" />
<path stroke="#2e2e41" d="M94 92h9M93 93h9M93 94h2M92 95h2M111 95h1M92 96h1M111 96h1M92 97h1M111 97h2M92 98h1M112 98h1M112 99h2M109 100h1M112 100h2M104 101h6M113 101h1M105 102h3" />
<path stroke="#caa27a" d="M106 92h2M108 93h1M94 100h3M93 101h2" />
<path stroke="#151522" d="M102 93h2M95 94h9M94 95h9M93 96h3M99 96h3M93 97h3M93 98h1M111 98h1M92 99h2M110 99h2M92 100h2M110 100h2M92 101h1M110 101h3M108 102h6M106 103h7M106 104h6M106 105h3" />
<path stroke="#1e2275" d="M103 95h3M102 96h2M105 96h1M99 97h5M106 97h1M99 98h5M105 98h1M107 98h1M110 98h1M99 99h7M108 99h2M102 100h2M106 100h3M96 103h3M101 103h1M94 104h9M93 105h10M92 106h11M92 107h7M92 108h6M91 109h6M90 110h2M93 110h4M90 111h1M94 111h4M95 112h3M95 113h4M96 114h3M102 114h1M97 115h5M97 116h4M96 117h2M95 118h1" />
<path stroke="#190560" d="M96 101h3M84 102h9M75 103h10" />
<path stroke="#000031" d="M96 102h3M72 103h3M85 103h8M73 104h13" />
<path stroke="#a1a1af" d="M80 108h1M79 109h3M78 110h2M82 110h1M78 111h1M83 111h2M77 112h1M84 112h3M85 113h3M86 114h3M87 115h2M98 121h1M98 122h1M97 123h1M95 125h1" />
<path stroke="#888891" d="M80 110h2M79 111h1M81 111h2M78 112h1M80 112h4M77 113h1M82 113h3M83 114h3M84 115h3M85 116h4M86 117h3M87 118h2M100 119h1M99 120h5M99 121h4M99 122h3M98 123h3M97 124h3M96 125h1M98 125h1M95 126h2M95 127h4" />
<path stroke="#171736" d="M92 110h1M91 111h3M90 112h5M90 113h5M89 114h5M90 115h4M104 115h1M90 116h3M104 116h2M104 117h2M104 118h2" />
</svg>