<svg xmlns="http://www.w3.org/2000/svg" viewBox="0 -0.5 200 200" shape-rendering="crispEdges">
<metadata>Made with Pixels to Svg https://codepen.io/shshaw/pen/XbxvNj</metadata>
<path stroke="#10101e" d="M104 80h2M103 81h1M105 81h1M102 82h1M106 85h1M105 86h1" />
<path stroke="#020205" d="M104 81h1M106 81h1M105 82h2M106 84h1M105 85h1M107 85h1M109 85h1M106 86h2M110 86h1M105 87h2M105 88h1M103 89h4M105 90h2M105 91h1M106 92h2M106 93h3M107 94h2M108 95h1M108 96h1M94 97h2M108 97h1M94 98h2M106 98h2M104 99h2M102 100h2M102 101h3M96 102h2M101 102h3M105 102h1M100 103h1M104 103h2M100 104h1M105 104h1M100 105h1M100 106h2M100 107h2M100 108h2M100 109h2M100 110h2M99 111h4M98 112h6M98 113h6M97 114h7M90 115h1M96 115h7M91 116h5M97 116h6M91 117h4M97 117h6M91 118h3M97 118h6M93 119h1M97 119h4M86 124h1M87 125h1M87 126h1" />
<path stroke="#b6a5a5" d="M107 82h1M106 83h1" />
<path stroke="#ce283d" d="M107 83h1M108 84h1M111 84h1M108 85h1M111 85h1M109 86h1M109 89h1" />
<path stroke="#a20b1f" d="M110 83h1M107 84h1M110 84h1M108 86h1M111 86h1M107 87h1M109 87h3M107 88h1M110 88h1M107 89h2M110 89h2M108 90h3" />
<path stroke="#1c1c2e" d="M110 85h1" />
<path stroke="#ffffff" d="M108 87h1M108 88h2M111 88h1" />
<path stroke="#b57e54" d="M106 88h1M98 99h4M95 100h1M99 100h3M93 101h3M99 101h3M93 102h3M99 102h2" />
<path stroke="#303593" d="M103 90h2M103 91h2M104 92h2M104 93h2M109 93h1M106 94h1M109 94h2M104 95h1M106 95h2M109 95h2M104 96h2M107 96h1M109 96h2M104 97h1M106 97h1M109 97h1M104 102h1M103 103h1M94 106h3M92 107h5M91 108h6M91 109h6M91 110h5M91 111h5M91 112h4M91 113h3" />
<path stroke="#890c1c" d="M107 90h1M111 90h1M108 91h4M109 92h3" />
<path stroke="#2e2e41" d="M94 91h9M93 92h9M93 93h2M92 94h2M111 94h1M92 95h1M111 95h1M92 96h1M111 96h2M92 97h1M112 97h1M112 98h2M109 99h1M112 99h2M104 100h6M113 100h1M105 101h3" />
<path stroke="#caa27a" d="M106 91h2M108 92h1M94 99h3M93 100h2" />
<path stroke="#151522" d="M102 92h2M95 93h9M94 94h9M93 95h3M99 95h3M93 96h3M93 97h1M111 97h1M92 98h2M110 98h2M92 99h2M110 99h2M92 100h1M110 100h3M108 101h6M106 102h7M106 103h6M106 104h3" />
<path stroke="#1e2275" d="M103 94h3M102 95h2M105 95h1M99 96h5M106 96h1M99 97h5M105 97h1M107 97h1M110 97h1M99 98h7M108 98h2M102 99h2M106 99h3M98 102h1M93 103h7M101 103h2M92 104h8M101 104h3M91 105h9M101 105h3M90 106h4M97 106h3M102 106h2M90 107h2M97 107h3M102 107h2M90 108h1M97 108h3M102 108h2M90 109h1M97 109h3M102 109h2M90 110h1M96 110h4M102 110h2M90 111h1M96 111h3M103 111h1M90 112h1M95 112h3M90 113h1M94 113h4M90 114h7M91 115h5" />
<path stroke="#190560" d="M96 100h3M84 101h9M75 102h10" />
<path stroke="#000031" d="M96 101h3M72 102h3M85 102h8M73 103h13" />
<path stroke="#888891" d="M84 115h3M84 116h7M84 117h7M84 118h7M84 119h2M90 119h3M96 119h1M84 120h1M89 120h5M84 121h1M89 121h4M89 122h3M88 123h3M87 124h3M86 125h1M88 125h1M85 126h2M85 127h4" />
<path stroke="#171736" d="M96 116h1M95 117h2M94 118h3M94 119h2" />
<path stroke="#a1a1af" d="M88 121h1M88 122h1M87 123h1M85 125h1" />
</svg>