<svg xmlns="http://www.w3.org/2000/svg" viewBox="0 -0.5 200 200" shape-rendering="crispEdges">
<metadata>Made with Pixels to Svg https://codepen.io/shshaw/pen/XbxvNj</metadata>
<path stroke="#10101e" d="M105 80h1M106 84h1M105 85h1" />
<path stroke="#020205" d="M106 80h1M104 81h3M103 82h2M106 83h1M105 84h1M107 84h1M109 84h1M106 85h2M110 85h1M105 86h2M105 87h1M103 88h4M105 89h2M105 90h1M106 91h2M106 92h3M107 93h2M108 94h1M108 95h1M94 96h2M108 96h1M94 97h2M106 97h2M104 98h2M102 99h2M102 100h3M102 101h4M100 102h1M104 102h2M100 103h3M105 103h1M100 104h4M99 105h7M98 106h11M97 107h13M97 108h13M96 109h2M99 109h12M96 110h2M100 110h11M95 111h2M101 111h11M94 112h2M102 112h10M86 113h3M92 113h3M103 113h9M87 114h7M105 114h7M87 115h6M106 115h5M87 116h5M108 116h2M88 117h2M98 120h1M99 121h1M79 124h1M80 125h1M80 126h1" />
<path stroke="#b6a5a5" d="M107 81h1M106 82h1" />
<path stroke="#ce283d" d="M107 82h1M108 83h1M111 83h1M108 84h1M111 84h1M109 85h1M109 88h1" />
<path stroke="#a20b1f" d="M110 82h1M107 83h1M110 83h1M108 85h1M111 85h1M107 86h1M109 86h3M107 87h1M110 87h1M107 88h2M110 88h2M108 89h3" />
<path stroke="#1c1c2e" d="M110 84h1" />
<path stroke="#ffffff" d="M108 86h1M108 87h2M111 87h1" />
<path stroke="#b57e54" d="M106 87h1M98 98h4M95 99h1M99 99h3M93 100h3M99 100h3M93 101h3M99 101h3" />
<path stroke="#303593" d="M103 89h2M103 90h2M104 91h2M104 92h2M109 92h1M106 93h1M109 93h2M104 94h1M106 94h2M109 94h2M104 95h2M107 95h1M109 95h2M104 96h1M106 96h1M109 96h1M96 101h3M91 104h3M90 105h6M89 106h7M88 107h8M87 108h8M87 109h7M87 110h6M89 111h2" />
<path stroke="#890c1c" d="M107 89h1M111 89h1M108 90h4M109 91h3" />
<path stroke="#2e2e41" d="M94 90h9M93 91h9M93 92h2M92 93h2M111 93h1M92 94h1M111 94h1M92 95h1M111 95h2M92 96h1M112 96h1M112 97h2M109 98h1M112 98h2M107 99h3M113 99h1M105 100h3" />
<path stroke="#caa27a" d="M106 90h2M108 91h1M94 98h3M93 99h2" />
<path stroke="#151522" d="M102 91h2M95 92h9M94 93h9M93 94h3M99 94h3M93 95h3M93 96h1M111 96h1M92 97h2M110 97h2M92 98h2M110 98h2M92 99h1M110 99h3M108 100h6M106 101h7M106 102h6M106 103h3" />
<path stroke="#1e2275" d="M103 93h3M102 94h2M105 94h1M99 95h5M106 95h1M99 96h5M105 96h1M107 96h1M110 96h1M99 97h7M108 97h2M102 98h2M106 98h3M104 99h3M93 102h7M101 102h3M92 103h8M103 103h2M94 104h6M104 104h2M96 105h3M106 105h2M96 106h2M96 107h1M95 108h2M94 109h2M98 109h1M86 110h1M93 110h3M98 110h2M86 111h3M91 111h4M97 111h3M86 112h8M89 113h3" />
<path stroke="#190560" d="M96 99h3M84 100h9M75 101h10" />
<path stroke="#000031" d="M96 100h3M72 101h3M85 101h8M73 102h13" />
<path stroke="#171736" d="M86 114h1M86 115h1" />
<path stroke="#a1a1af" d="M85 115h1M85 116h1M84 117h2M84 118h1M83 119h1M82 120h1M81 121h1M81 122h1M80 123h1M78 125h1" />
<path stroke="#888891" d="M104 115h2M86 116h1M102 116h6M86 117h2M101 117h7M85 118h3M100 118h7M84 119h3M98 119h6M83 120h4M96 120h2M99 120h3M82 121h4M96 121h3M82 122h3M97 122h3M81 123h3M98 123h2M80 124h3M99 124h1M79 125h1M81 125h1M78 126h2M78 127h4" />
</svg>