<svg xmlns="http://www.w3.org/2000/svg" viewBox="0 -0.5 200 200" shape-rendering="crispEdges">
<metadata>Made with Pixels to Svg https://codepen.io/shshaw/pen/XbxvNj</metadata>
<path stroke="#10101e" d="M104 79h2M103 80h1M105 80h1M102 81h1M106 84h1M105 85h1" />
<path stroke="#020205" d="M104 80h1M106 80h1M105 81h2M106 83h1M105 84h1M107 84h1M109 84h1M106 85h2M110 85h1M105 86h2M105 87h1M103 88h4M105 89h2M105 90h1M106 91h2M106 92h3M107 93h2M108 94h1M108 95h1M94 96h2M108 96h1M94 97h2M106 97h2M104 98h2M102 99h2M102 100h3M102 101h4M100 102h1M104 102h2M100 103h2M100 104h5M99 105h14M98 106h15M97 107h18M95 108h20M87 109h29M86 110h30M86 111h11M103 111h13M86 112h10M106 112h9M86 113h9M87 114h7M87 115h6M76 116h1M87 116h5M75 117h1M88 117h2M105 118h1M106 119h1" />
<path stroke="#b6a5a5" d="M107 81h1M106 82h1" />
<path stroke="#ce283d" d="M107 82h1M108 83h1M111 83h1M108 84h1M111 84h1M109 85h1M109 88h1" />
<path stroke="#a20b1f" d="M110 82h1M107 83h1M110 83h1M108 85h1M111 85h1M107 86h1M109 86h3M107 87h1M110 87h1M107 88h2M110 88h2M108 89h3" />
<path stroke="#1c1c2e" d="M110 84h1" />
<path stroke="#ffffff" d="M108 86h1M108 87h2M111 87h1" />
<path stroke="#b57e54" d="M106 87h1M98 98h4M95 99h1M99 99h3M93 100h3M99 100h3M93 101h3M99 101h3" />
<path stroke="#303593" d="M103 89h2M103 90h2M104 91h2M104 92h2M109 92h1M106 93h1M109 93h2M104 94h1M106 94h2M109 94h2M104 95h2M107 95h1M109 95h2M104 96h1M106 96h1M109 96h1M96 101h3M89 103h4M88 104h6M88 105h6M87 106h6M87 107h5M87 108h1" />
<path stroke="#890c1c" d="M107 89h1M111 89h1M108 90h4M109 91h3" />
<path stroke="#2e2e41" d="M94 90h9M93 91h9M93 92h2M92 93h2M111 93h1M92 94h1M111 94h1M92 95h1M111 95h2M92 96h1M112 96h1M112 97h2M109 98h1M112 98h2M107 99h3M113 99h1M105 100h3" />
<path stroke="#caa27a" d="M106 90h2M108 91h1M94 98h3M93 99h2" />
<path stroke="#151522" d="M102 91h2M95 92h9M94 93h9M93 94h3M99 94h3M93 95h3M93 96h1M111 96h1M92 97h2M110 97h2M92 98h2M110 98h2M92 99h1M110 99h3M108 100h6M106 101h7M106 102h6M106 103h3" />
<path stroke="#1e2275" d="M103 93h3M102 94h2M105 94h1M99 95h5M106 95h1M99 96h5M105 96h1M107 96h1M110 96h1M99 97h7M108 97h2M102 98h2M106 98h3M104 99h3M91 102h9M101 102h3M93 103h7M102 103h4M94 104h6M105 104h6M94 105h5M93 106h5M92 107h5M88 108h7M97 111h6M96 112h1" />
<path stroke="#190560" d="M96 99h3M84 100h9M75 101h10" />
<path stroke="#000031" d="M96 100h3M72 101h3M85 101h8M73 102h13" />
<path stroke="#888891" d="M111 113h5M109 114h6M108 115h7M75 116h1M77 116h10M107 116h7M76 117h1M78 117h10M105 117h6M74 118h2M84 118h5M103 118h2M106 118h3M74 119h1M103 119h3M104 120h3M105 121h2M106 122h1" />
<path stroke="#a1a1af" d="M84 114h2M75 115h11M74 116h1M74 117h1" />
<path stroke="#171736" d="M86 114h1M86 115h1" />
</svg>